<svg width="36" height="36" viewBox="0 0 36 36" fill="none" xmlns="http://www.w3.org/2000/svg">
<path d="M11.8021 4.14581C11.8021 3.85573 11.6869 3.57753 11.4817 3.37241C11.2766 3.1673 10.9984 3.05206 10.7083 3.05206C10.4183 3.05206 10.1401 3.1673 9.93494 3.37241C9.72982 3.57753 9.61458 3.85573 9.61458 4.14581V6.44998C7.51458 6.61769 6.13792 7.02894 5.12583 8.04248C4.11229 9.05456 3.70104 10.4327 3.53188 12.5312H32.4681C32.299 10.4312 31.8877 9.05456 30.8742 8.04248C29.8621 7.02894 28.484 6.61769 26.3854 6.44852V4.14581C26.3854 3.85573 26.2702 3.57753 26.0651 3.37241C25.8599 3.1673 25.5817 3.05206 25.2917 3.05206C25.0016 3.05206 24.7234 3.1673 24.5183 3.37241C24.3132 3.57753 24.1979 3.85573 24.1979 4.14581V6.35227C23.2281 6.33331 22.1402 6.33331 20.9167 6.33331H15.0833C13.8598 6.33331 12.7719 6.33331 11.8021 6.35227V4.14581Z" fill="#73ECBF"/>
<path fill-rule="evenodd" clip-rule="evenodd" d="M3.41667 18C3.41667 16.7765 3.41667 15.6885 3.43563 14.7188H32.5644C32.5833 15.6885 32.5833 16.7765 32.5833 18V20.9167C32.5833 26.416 32.5833 29.1665 30.8742 30.8742C29.165 32.5819 26.416 32.5833 20.9167 32.5833H15.0833C9.58396 32.5833 6.83355 32.5833 5.12584 30.8742C3.41813 29.165 3.41667 26.416 3.41667 20.9167V18ZM25.2917 20.9167C25.6784 20.9167 26.0494 20.763 26.3229 20.4895C26.5964 20.216 26.75 19.8451 26.75 19.4583C26.75 19.0716 26.5964 18.7006 26.3229 18.4271C26.0494 18.1536 25.6784 18 25.2917 18C24.9049 18 24.534 18.1536 24.2605 18.4271C23.987 18.7006 23.8333 19.0716 23.8333 19.4583C23.8333 19.8451 23.987 20.216 24.2605 20.4895C24.534 20.763 24.9049 20.9167 25.2917 20.9167ZM25.2917 26.75C25.6784 26.75 26.0494 26.5964 26.3229 26.3229C26.5964 26.0494 26.75 25.6784 26.75 25.2917C26.75 24.9049 26.5964 24.534 26.3229 24.2605C26.0494 23.987 25.6784 23.8333 25.2917 23.8333C24.9049 23.8333 24.534 23.987 24.2605 24.2605C23.987 24.534 23.8333 24.9049 23.8333 25.2917C23.8333 25.6784 23.987 26.0494 24.2605 26.3229C24.534 26.5964 24.9049 26.75 25.2917 26.75ZM19.4583 19.4583C19.4583 19.8451 19.3047 20.216 19.0312 20.4895C18.7577 20.763 18.3868 20.9167 18 20.9167C17.6132 20.9167 17.2423 20.763 16.9688 20.4895C16.6953 20.216 16.5417 19.8451 16.5417 19.4583C16.5417 19.0716 16.6953 18.7006 16.9688 18.4271C17.2423 18.1536 17.6132 18 18 18C18.3868 18 18.7577 18.1536 19.0312 18.4271C19.3047 18.7006 19.4583 19.0716 19.4583 19.4583ZM19.4583 25.2917C19.4583 25.6784 19.3047 26.0494 19.0312 26.3229C18.7577 26.5964 18.3868 26.75 18 26.75C17.6132 26.75 17.2423 26.5964 16.9688 26.3229C16.6953 26.0494 16.5417 25.6784 16.5417 25.2917C16.5417 24.9049 16.6953 24.534 16.9688 24.2605C17.2423 23.987 17.6132 23.8333 18 23.8333C18.3868 23.8333 18.7577 23.987 19.0312 24.2605C19.3047 24.534 19.4583 24.9049 19.4583 25.2917ZM10.7083 20.9167C11.0951 20.9167 11.466 20.763 11.7395 20.4895C12.013 20.216 12.1667 19.8451 12.1667 19.4583C12.1667 19.0716 12.013 18.7006 11.7395 18.4271C11.466 18.1536 11.0951 18 10.7083 18C10.3216 18 9.95063 18.1536 9.67714 18.4271C9.40365 18.7006 9.25001 19.0716 9.25001 19.4583C9.25001 19.8451 9.40365 20.216 9.67714 20.4895C9.95063 20.763 10.3216 20.9167 10.7083 20.9167ZM10.7083 26.75C11.0951 26.75 11.466 26.5964 11.7395 26.3229C12.013 26.0494 12.1667 25.6784 12.1667 25.2917C12.1667 24.9049 12.013 24.534 11.7395 24.2605C11.466 23.987 11.0951 23.8333 10.7083 23.8333C10.3216 23.8333 9.95063 23.987 9.67714 24.2605C9.40365 24.534 9.25001 24.9049 9.25001 25.2917C9.25001 25.6784 9.40365 26.0494 9.67714 26.3229C9.95063 26.5964 10.3216 26.75 10.7083 26.75Z" fill="#73ECBF"/>
</svg>
