<svg width="36" height="36" viewBox="0 0 36 36" fill="none" xmlns="http://www.w3.org/2000/svg">
<path d="M31.8105 6.84375L29.8563 6.02708V19.1958L33.4 10.65C33.998 9.1625 33.3125 7.45625 31.8105 6.84375ZM3.37296 12.2396L10.6063 29.6667C10.8193 30.1969 11.1826 30.6533 11.6516 30.9798C12.1205 31.3062 12.6747 31.4885 13.2459 31.5042C13.625 31.5042 14.0188 31.4313 14.398 31.2708L25.1459 26.8229C26.2396 26.3708 26.9105 25.2917 26.9396 24.2125C26.9542 23.8333 26.8813 23.4104 26.75 23.0312L19.4584 5.60417C19.2529 5.06999 18.8911 4.61022 18.4202 4.28499C17.9492 3.95976 17.3911 3.7842 16.8188 3.78125C16.4396 3.78125 16.0605 3.86875 15.6959 4L4.96254 8.44792C4.24907 8.74009 3.68083 9.30363 3.38275 10.0147C3.08467 10.7257 3.08115 11.526 3.37296 12.2396ZM26.925 6.69792C26.925 5.92437 26.6178 5.1825 26.0708 4.63552C25.5238 4.08854 24.7819 3.78125 24.0084 3.78125H21.8938L26.925 15.9438" fill="#73ECBF"/>
</svg>
