<svg width="36" height="36" viewBox="0 0 36 36" fill="none" xmlns="http://www.w3.org/2000/svg">
<path d="M18 6.33331C19.5471 6.33331 21.0309 6.94789 22.1248 8.04186C23.2188 9.13582 23.8334 10.6195 23.8334 12.1666C23.8334 13.7137 23.2188 15.1975 22.1248 16.2914C21.0309 17.3854 19.5471 18 18 18C16.4529 18 14.9692 17.3854 13.8753 16.2914C12.7813 15.1975 12.1667 13.7137 12.1667 12.1666C12.1667 10.6195 12.7813 9.13582 13.8753 8.04186C14.9692 6.94789 16.4529 6.33331 18 6.33331ZM18 20.9166C24.4459 20.9166 29.6667 23.5271 29.6667 26.75V29.6666H6.33337V26.75C6.33337 23.5271 11.5542 20.9166 18 20.9166Z" fill="white"/>
</svg>
